<svg width="21" height="58" viewBox="0 0 21 58" fill="none" xmlns="http://www.w3.org/2000/svg">
<path d="M9.1418 16.266C9.71607 16.0624 10.2365 15.8253 10.7 15.5526V57V57.5H11.2H19.6H20.1V57V1V0.5H19.6H12H11.5V1C11.5 2.14371 11.2272 3.26756 10.6728 4.3764L10.6727 4.37635L10.6685 4.38504C10.1644 5.44364 9.45751 6.40564 8.54215 7.27131C7.62493 8.08554 6.55096 8.77697 5.31614 9.34341C4.15599 9.84709 2.91893 10.1 1.59998 10.1H1.09998V10.6V17V17.5H1.59998C3.32562 17.5 4.82249 17.3923 6.08565 17.1726L6.09596 17.1708L6.10619 17.1686C7.34116 16.9001 8.35668 16.6008 9.1418 16.266Z" stroke="black"/>
</svg>
