<svg width="45" height="61" viewBox="0 0 45 61" fill="none" xmlns="http://www.w3.org/2000/svg">
<path d="M33.8615 15.0394L33.8651 15.0476L33.8689 15.0557C34.4254 16.2193 34.7 17.3993 34.7 18.6C34.7 20.6435 33.934 22.4094 32.3723 23.9207L32.3722 23.9206L32.3664 23.9264C30.8051 25.4878 28.7902 26.982 26.3124 28.4056C23.8707 29.7856 21.215 31.1667 18.3448 32.5487C15.4939 33.8936 12.8033 35.4541 10.2736 37.2302C7.7769 38.9671 5.68245 41.0061 3.99441 43.3476L3.99313 43.3494C2.32313 45.6874 1.5 48.5133 1.5 51.8V59.4V59.9H2H43.6H44.1V59.4V51.8V51.3H43.6H10.9151C11.0275 49.4632 11.7669 47.8615 13.1506 46.4765C14.767 44.9128 16.7832 43.4447 19.206 42.0753L19.2091 42.0736C21.7032 40.6408 24.3578 39.2603 27.1733 37.9322L27.1769 37.9305C30.0792 36.5331 32.769 34.9733 35.2455 33.2505L35.2473 33.2492C37.7947 31.4606 39.8899 29.4221 41.5262 27.1316C43.2484 24.7423 44.1 21.8902 44.1 18.6C44.1 16.1311 43.6058 13.7944 42.616 11.5948C41.6273 9.39786 40.2262 7.47538 38.4163 5.83003C36.6054 4.18373 34.4434 2.89921 31.9378 1.97265C29.4203 0.988256 26.639 0.5 23.6 0.5C20.6688 0.5 17.9696 0.961237 15.5079 1.89053C13.0597 2.76153 10.9027 3.96178 9.04215 5.49403C7.1869 7.02188 5.60508 8.82228 4.29726 10.893L4.29725 10.893L4.29536 10.896C3.04346 12.91 2.1168 15.0351 1.51708 17.2704L1.36382 17.8417L1.9526 17.8977L10.3526 18.6977L10.7395 18.7346L10.8707 18.3687C11.8575 15.6161 13.3568 13.3993 15.363 11.7017L15.363 11.7017L15.3686 11.6969C17.3321 9.98509 20.0555 9.1 23.6 9.1C25.2486 9.1 26.7279 9.38315 28.0452 9.94048L28.0557 9.94492L28.0663 9.94887C29.4551 10.4632 30.6257 11.1528 31.5866 12.0126L31.5865 12.0127L31.5962 12.021C32.6074 12.8806 33.36 13.886 33.8615 15.0394Z" stroke="black"/>
</svg>
