<svg width="47" height="61" viewBox="0 0 47 61" fill="none" xmlns="http://www.w3.org/2000/svg">
<path d="M10.676 40.847L10.5469 40.4454L10.1293 40.505L1.72928 41.705L1.16004 41.7864L1.31963 42.3388C2.0252 44.7811 3.02996 47.0627 4.33416 49.1821L4.33409 49.1821L4.33905 49.1898C5.69857 51.3107 7.33071 53.1877 9.23459 54.8196L9.24038 54.8246L9.24632 54.8294C11.214 56.4144 13.4783 57.6411 16.0343 58.5118C18.6024 59.44 21.4596 59.9 24.6 59.9C27.8514 59.9 30.8191 59.3853 33.4965 58.3478C36.1627 57.3679 38.4337 56.0025 40.3001 54.2465C42.214 52.496 43.694 50.4685 44.7356 48.1661L44.7373 48.1621C45.78 45.8024 46.3 43.2799 46.3 40.6C46.3 38.133 45.8065 35.7979 44.8182 33.5998C43.8894 31.4158 42.6316 29.4743 41.0451 27.7784C39.4591 26.083 37.626 24.7147 35.5482 23.6751C33.6075 22.6543 31.5907 22.0123 29.5 21.7524V21.6155L43.7433 8.16351L43.9 8.01553V7.8V1V0.5H43.4H6.99999H6.49999V1V8.6V9.1H6.99999H30.1V9.18423L16.257 22.2362L16.1 22.3842V22.6V29.4V29.9H16.6H24.6C26.464 29.9 28.131 30.2105 29.6088 30.822L29.6183 30.8259L29.6279 30.8294C31.1753 31.3968 32.4779 32.1657 33.5445 33.1308C34.6107 34.0954 35.4213 35.2354 35.9795 36.5548L35.9841 36.5657L35.9892 36.5764C36.5965 37.8415 36.9 39.1808 36.9 40.6C36.9 42.0193 36.5964 43.388 35.986 44.7105L35.9859 44.7104L35.9823 44.7186C35.4251 45.9851 34.6143 47.1014 33.5445 48.0692C32.4752 49.0367 31.1693 49.8333 29.6185 50.4541C28.1378 51.0151 26.4672 51.3 24.6 51.3C22.7291 51.3 21.0544 51.0406 19.5702 50.5298C18.0745 49.9617 16.7381 49.2159 15.5576 48.2937C14.4233 47.3126 13.4439 46.2038 12.6186 44.9665C11.7895 43.6703 11.1422 42.2974 10.676 40.847Z" stroke="black"/>
</svg>
