<svg width="93" height="139" viewBox="0 0 93 139" fill="none" xmlns="http://www.w3.org/2000/svg">
<path d="M91.4347 3.4357C92.2276 3.19574 92.6759 2.35843 92.4359 1.56551C92.196 0.772602 91.3587 0.324345 90.5658 0.564304L91.4347 3.4357ZM91.0003 132L77.115 121.646L75.0911 138.848L91.0003 132ZM90.5658 0.564304C71.9657 6.19325 53.2678 15.9064 37.8086 27.6124C22.3716 39.3017 10.035 53.0768 4.33229 66.893C1.47424 73.8173 0.263322 80.8009 1.21871 87.5486C2.17637 94.3124 5.29715 100.738 10.9342 106.54C22.1534 118.089 43.3114 127.154 77.3764 131.907L77.791 128.936C43.9359 124.212 23.5999 115.273 13.086 104.45C7.85641 99.0666 5.05078 93.2141 4.18908 87.128C3.3251 81.0259 4.40185 74.5875 7.10535 68.0376C12.5258 54.9053 24.4078 41.5229 39.6197 30.0041C54.8094 18.5022 73.1906 8.95692 91.4347 3.4357L90.5658 0.564304Z" fill="#06BCC1"/>
</svg>
