<svg width="93" height="139" viewBox="0 0 93 139" fill="none" xmlns="http://www.w3.org/2000/svg">
<path d="M91.4342 3.4357C92.2272 3.19574 92.6754 2.35843 92.4355 1.56551C92.1955 0.772602 91.3582 0.324345 90.5653 0.564304L91.4342 3.4357ZM90.9998 132L77.1145 121.646L75.0906 138.848L90.9998 132ZM90.5653 0.564304C71.9652 6.19325 53.2673 15.9064 37.8081 27.6124C22.3711 39.3017 10.0345 53.0768 4.3318 66.893C1.47375 73.8173 0.262834 80.8009 1.21822 87.5486C2.17588 94.3124 5.29666 100.738 10.9337 106.54C22.1529 118.089 43.311 127.154 77.3759 131.907L77.7905 128.936C43.9354 124.212 23.5995 115.273 13.0855 104.45C7.85592 99.0666 5.0503 93.2141 4.18859 87.128C3.32461 81.0259 4.40136 74.5875 7.10487 68.0376C12.5253 54.9053 24.4073 41.5229 39.6192 30.0041C54.8089 18.5022 73.1901 8.95692 91.4342 3.4357L90.5653 0.564304Z" fill="black"/>
</svg>
