<svg width="66" height="187" viewBox="0 0 66 187" fill="none" xmlns="http://www.w3.org/2000/svg">
<path d="M64.4745 3.42303C65.2604 3.16105 65.6852 2.31158 65.4232 1.52566C65.1612 0.739745 64.3118 0.315004 63.5258 0.576975L64.4745 3.42303ZM35.0001 187L31.337 170.071L18.5078 181.708L35.0001 187ZM63.5258 0.576975C52.4659 4.26361 41.148 13.029 31.2539 25.0156C21.344 37.0213 12.7805 52.3555 7.27213 69.3379C-3.74437 103.302 -2.58424 144.047 24.7566 177.936L27.0915 176.052C0.544476 143.147 -0.664289 103.53 10.1258 70.2635C15.5207 53.6307 23.9043 38.6323 33.5675 26.9254C43.2465 15.1994 54.1275 6.87201 64.4745 3.42303L63.5258 0.576975Z" fill="#06BCC1"/>
</svg>
