<svg width="81" height="81" viewBox="0 0 81 81" fill="none" xmlns="http://www.w3.org/2000/svg">
<rect x="1.5" y="1.5" width="78" height="78" rx="11.5" stroke="#9C27B0" stroke-width="3"/>
<path d="M27.1414 10.2153V29.6663C26.9388 31.8951 27.6277 36.5957 32.0042 37.5683" stroke="#9C27B0" stroke-width="2" stroke-linecap="round"/>
<path d="M54.4945 71L54.4945 50.9412C54.6971 48.7124 54.0082 44.0118 49.6317 43.0392" stroke="#9C27B0" stroke-width="2" stroke-linecap="round"/>
<path d="M32.6121 10.2153H49.0238" stroke="#9C27B0" stroke-width="2" stroke-linecap="round"/>
<path d="M32.6121 16.2939H49.0238" stroke="#9C27B0" stroke-width="2" stroke-linecap="round"/>
<path d="M32.6121 22.3726H49.0238" stroke="#9C27B0" stroke-width="2" stroke-linecap="round"/>
<path d="M32.6121 28.4512H49.0238" stroke="#9C27B0" stroke-width="2" stroke-linecap="round"/>
<path d="M32.6121 52.7646H49.0238" stroke="#9C27B0" stroke-width="2" stroke-linecap="round"/>
<path d="M32.6121 58.8433H49.0238" stroke="#9C27B0" stroke-width="2" stroke-linecap="round"/>
<path d="M32.6121 64.9219H49.0238" stroke="#9C27B0" stroke-width="2" stroke-linecap="round"/>
<path d="M32.6121 71H49.0238" stroke="#9C27B0" stroke-width="2" stroke-linecap="round"/>
<path d="M54.4944 9V31.4902C54.4944 35.7451 50.3611 40 41.1219 40C31.8827 40 27.7493 44.8627 27.7493 49.7255V71" stroke="#9C27B0" stroke-width="2" stroke-linecap="round"/>
<path d="M36.2591 34.3135H44.7689" stroke="#9C27B0" stroke-width="2" stroke-linecap="round"/>
<path d="M36.2591 46.9023H44.7689" stroke="#9C27B0" stroke-width="2" stroke-linecap="round"/>
</svg>
