<svg width="81" height="81" viewBox="0 0 81 81" fill="none" xmlns="http://www.w3.org/2000/svg">
<rect x="1.5" y="1.5" width="78" height="78" rx="11.5" stroke="#9C27B0" stroke-width="3"/>
<path fill-rule="evenodd" clip-rule="evenodd" d="M18.9486 24.0796C16.7971 26.3123 15.2271 29.524 14.8826 33.9287C14.3406 40.8603 18.36 46.8435 23.8336 51.5756C29.2555 56.263 35.9565 59.5867 40.5 61.2182C45.0435 59.5867 51.7445 56.263 57.1664 51.5756C62.64 46.8435 66.6594 40.8603 66.1174 33.9287C65.7729 29.524 64.2029 26.3123 62.0514 24.0796C59.8932 21.84 57.1035 20.5378 54.2495 20.0375C51.3893 19.5361 48.5029 19.8474 46.1864 20.7917C43.8642 21.7383 42.2005 23.2787 41.5876 25.1877C41.4419 25.6415 40.9641 25.902 40.5 25.7925C40.0359 25.902 39.5581 25.6415 39.4124 25.1877C38.7995 23.2787 37.1358 21.7383 34.8136 20.7917C32.4971 19.8474 29.6107 19.5361 26.7505 20.0375C23.8965 20.5378 21.1068 21.84 18.9486 24.0796ZM40.5 23.1704C39.4379 21.3558 37.6337 19.9923 35.5166 19.1293C32.8537 18.0438 29.6092 17.7079 26.4282 18.2655C23.241 18.8243 20.0793 20.2872 17.6169 22.8425C15.1478 25.4047 13.428 29.0176 13.0547 33.7909C12.4484 41.5441 16.9623 48.0335 22.622 52.9265C28.2939 57.83 35.2677 61.2697 39.9741 62.9458C40.1493 63.0082 40.3313 63.0149 40.5 62.9751C40.6686 63.0149 40.8507 63.0082 41.0259 62.9458C45.7323 61.2697 52.7061 57.83 58.378 52.9265C64.0377 48.0335 68.5516 41.5441 67.9453 33.7909C67.572 29.0176 65.8522 25.4047 63.3831 22.8425C60.9207 20.2872 57.759 18.8243 54.5718 18.2655C51.3908 17.7079 48.1463 18.0438 45.4834 19.1293C43.3663 19.9923 41.5621 21.3558 40.5 23.1704Z" fill="#9C27B0" stroke="#9C27B0" stroke-linecap="round"/>
</svg>
