<svg width="44" height="134" viewBox="0 0 44 134" fill="none" xmlns="http://www.w3.org/2000/svg">
<path d="M18.3568 36.3511C20.1123 35.7239 21.6292 34.9643 22.9 34.0674V133V133.5H23.4H43H43.5V133V1V0.5H43H25.2667H24.7667V1C24.7667 3.80936 24.1023 6.56242 22.7652 9.26392L22.7651 9.26388L22.7611 9.27253C21.5454 11.8514 19.8425 14.1885 17.647 16.2845C15.4496 18.2565 12.8823 19.9247 9.94104 21.2871C7.14575 22.5141 4.16709 23.1286 1 23.1286H0.5V23.6286V38.7143V39.2143H1C5.0014 39.2143 8.45412 38.9618 11.3532 38.4525L11.3636 38.4506L11.3739 38.4484C14.2444 37.818 16.5758 37.1205 18.3568 36.3511Z" fill="#B4EBEC" stroke="#B4EBEC"/>
</svg>
