<svg width="97" height="134" viewBox="0 0 97 134" fill="none" xmlns="http://www.w3.org/2000/svg">
<path d="M74.5722 32.4815L74.5758 32.4897L74.5797 32.4979C75.8752 35.2074 76.5192 37.9669 76.5192 40.7808C76.5192 45.5802 74.7119 49.7322 71.0676 53.2599L71.0676 53.2599L71.0618 53.2657C67.4851 56.8434 62.8837 60.2533 57.2485 63.4917C51.7165 66.6193 45.7019 69.7479 39.204 72.8774C32.7929 75.9026 26.7436 79.4121 21.0567 83.406C15.4694 87.294 10.7882 91.8538 7.01744 97.0857L7.01617 97.0875C3.33081 102.249 1.5 108.502 1.5 115.822V133V133.5H2H96H96.5V133V115.822V115.322H96H21.4872C21.605 110.73 23.354 106.743 26.7545 103.34C30.4534 99.7599 35.056 96.4098 40.5692 93.2928L40.5722 93.2911C46.2237 90.0435 52.2374 86.9154 58.6134 83.907L58.617 83.9053C65.1469 80.7603 71.1957 77.2512 76.7625 73.3775L76.7643 73.3763C82.4691 69.3696 87.1507 64.8106 90.8023 59.6971C94.6071 54.4176 96.5 48.1039 96.5 40.7808C96.5 35.2873 95.4012 30.0939 93.2021 25.2058C91.0043 20.3203 87.8901 16.0453 83.8633 12.3835C79.8354 8.72073 75.0198 5.85665 69.4239 3.78744C63.8162 1.59318 57.6087 0.5 50.8077 0.5C44.2488 0.5 38.2242 1.53256 32.7394 3.60451C27.2682 5.55095 22.4576 8.22994 18.3129 11.6442C14.1735 15.0541 10.6435 19.0726 7.72336 23.6974L7.72148 23.7005C4.92446 28.2013 2.85576 32.9478 1.51707 37.939L1.36387 38.5102L1.95258 38.5662L20.9333 40.3745L21.3203 40.4113L21.4515 40.0454C23.7147 33.7304 27.1622 28.6233 31.7884 24.7077L31.7884 24.7077L31.794 24.7029C36.3775 20.7058 42.695 18.6781 50.8077 18.6781C54.6061 18.6781 58.0335 19.3309 61.0974 20.6276L61.1079 20.632L61.1186 20.636C64.3212 21.8225 67.0369 23.4195 69.2742 25.4219L69.2741 25.422L69.2838 25.4302C71.6387 27.4325 73.3989 29.7822 74.5722 32.4815Z" fill="#B4EBEC" stroke="#B4EBEC"/>
</svg>
