<svg width="102" height="134" viewBox="0 0 102 134" fill="none" xmlns="http://www.w3.org/2000/svg">
<path d="M21.3762 91.2586L21.2474 90.856L20.829 90.916L1.92897 93.6284L1.36085 93.7099L1.51948 94.2615C3.09161 99.7283 5.32958 104.833 8.23364 109.574L8.23357 109.574L8.2385 109.581C11.2646 114.323 14.8966 118.519 19.1338 122.168L19.1395 122.173L19.1455 122.178C23.5131 125.712 28.5441 128.451 34.2336 130.398C39.9352 132.469 46.2927 133.5 53.3 133.5C60.5515 133.5 67.1525 132.347 73.0967 130.032C79.0298 127.842 84.0677 124.796 88.2008 120.889C92.448 116.988 95.7278 112.473 98.0359 107.348L98.0377 107.344C100.347 102.094 101.5 96.48 101.5 90.5068C101.5 85.0155 100.407 79.8241 98.2185 74.9376C96.1566 70.0651 93.3656 65.7375 89.8459 61.9579C86.3266 58.1787 82.2602 55.1298 77.649 52.813C73.1749 50.4482 68.5244 48.9982 63.7 48.4671V47.3244L95.9441 16.7326L96.1 16.5847V16.3699V1V0.5H95.6H13.7H13.2V1V18.1781V18.6781H13.7H66.3V19.7712L34.9562 49.4589L34.8 49.6068V49.8219V65.1918V65.6918H35.3H53.3C57.5637 65.6918 61.3972 66.4055 64.8081 67.8233L64.8176 67.8273L64.8272 67.8308C68.3744 69.1374 71.377 70.9143 73.8437 73.1563C76.31 75.3979 78.1875 78.0502 79.4792 81.1174L79.4838 81.1282L79.4889 81.1388C80.8963 84.0845 81.6 87.2053 81.6 90.5068C81.6 93.8085 80.8963 96.9922 79.4857 100.062L79.4856 100.062L79.482 100.071C78.1912 103.018 76.3136 105.613 73.8437 107.857C71.3744 110.102 68.3685 111.94 64.818 113.367C61.4042 114.667 57.5671 115.322 53.3 115.322C49.0293 115.322 45.1883 114.726 41.7709 113.544C38.3421 112.236 35.2723 110.516 32.5585 108.384C29.9574 106.126 27.7113 103.572 25.8192 100.722C23.9233 97.7453 22.4425 94.5912 21.3762 91.2586Z" fill="#B4EBEC" stroke="#B4EBEC"/>
</svg>
