<svg width="235" height="58" viewBox="0 0 235 58" fill="none" xmlns="http://www.w3.org/2000/svg">
<path d="M45.7308 24.3417C45.7308 30.6404 43.3163 36.3599 39.386 40.5772C35.2234 45.0437 22.8654 57.4651 22.8654 57.4651C22.8654 57.4651 10.5073 45.0437 6.34481 40.5772C2.41452 36.3599 0 30.6404 0 24.3417C0 11.3721 10.2372 0.858124 22.8654 0.858124C35.4936 0.858124 45.7308 11.3721 45.7308 24.3417Z" fill="#D2D6E3"/>
<path d="M59.0994 17.5221V11.8669H63.4959C64.0032 11.8669 64.409 12.0236 64.7303 12.3542C65.0347 12.6848 65.1869 13.1198 65.1869 13.694V15.6081C65.1869 16.2693 65.3729 16.7739 65.728 17.1393C66.0831 17.5047 66.5735 17.6961 67.216 17.6961H67.7233V16.9131H67.216C66.4213 16.9131 66.0323 16.4781 66.0323 15.6081V13.694C66.0323 13.1894 65.9478 12.8066 65.7787 12.5108C65.6096 12.215 65.4236 11.9888 65.2207 11.8321C64.9839 11.6407 64.7134 11.5189 64.4259 11.4667V11.3971C64.6965 11.3449 64.9332 11.2231 65.1361 11.0491C65.3221 10.8925 65.4912 10.6837 65.6434 10.4053C65.7956 10.1269 65.8633 9.74409 65.8633 9.25688V7.42982C65.8633 6.5598 66.2522 6.12479 67.0469 6.12479H67.5542V5.34177H67.0469C66.4044 5.34177 65.914 5.51577 65.5589 5.88118C65.2038 6.24659 65.0178 6.76861 65.0178 7.42982V9.25688C65.0178 9.83109 64.8656 10.2661 64.5612 10.5967C64.2399 10.9273 63.8341 11.0839 63.3268 11.0839H59.0994V5.51577H58.2539V17.5221H59.0994Z" fill="white"/>
<path d="M72.03 14.303H79.132L79.893 17.5221H80.7385L77.9484 5.51577H73.2137L70.4236 17.5221H71.2691L72.03 14.303ZM72.1991 13.52L73.8901 6.29879H77.272L78.9629 13.52H72.1991Z" fill="white"/>
<path d="M93.5885 9.69189C93.5885 9.10027 93.487 8.54346 93.2672 8.03884C93.0474 7.53423 92.7599 7.09922 92.371 6.7164C91.9821 6.351 91.5255 6.05519 90.9844 5.82898C90.4433 5.62017 89.8514 5.51577 89.192 5.51577H84.4573V17.5221H85.3027V13.868H89.192C89.8514 13.868 90.4433 13.7636 90.9844 13.5374C91.5255 13.3286 91.9821 13.0328 92.371 12.65C92.7599 12.2846 93.0474 11.8321 93.2672 11.3275C93.487 10.8229 93.5885 10.2835 93.5885 9.69189ZM92.743 9.69189C92.743 10.1617 92.6584 10.6141 92.4893 11.0317C92.3203 11.4493 92.0835 11.8147 91.7622 12.1106C91.441 12.4064 91.0689 12.65 90.6462 12.824C90.2065 12.998 89.7162 13.085 89.192 13.085H85.3027V6.29879H89.192C89.7162 6.29879 90.2065 6.3858 90.6462 6.5598C91.0689 6.73381 91.441 6.97741 91.7622 7.27322C92.0835 7.58643 92.3203 7.95184 92.4893 8.35205C92.6584 8.76966 92.743 9.22207 92.743 9.69189Z" fill="white"/>
<path d="M96.4578 6.29879H100.685V17.5221H101.531V6.29879H105.758V5.51577H96.4578V6.29879Z" fill="white"/>
<path d="M108.891 14.303H115.993L116.754 17.5221H117.6L114.809 5.51577H110.075L107.285 17.5221H108.13L108.891 14.303ZM109.06 13.52L110.751 6.29879H114.133L115.824 13.52H109.06Z" fill="white"/>
<path d="M66.286 24.3663L59.1839 34.8936H59.0994V24.3663H58.2539V36.3726H59.1839L66.286 25.8453H66.3705V36.3726H67.216V24.3663H66.286Z" fill="white"/>
<path d="M71.9501 24.3663V36.3726H72.7955V30.7175H79.8976V36.3726H80.7431V24.3663H79.8976V29.9345H72.7955V24.3663H71.9501Z" fill="white"/>
<path d="M85.4811 24.3663V36.3726H86.3266V30.7175H93.4286V36.3726H94.2741V24.3663H93.4286V29.9345H86.3266V24.3663H85.4811Z" fill="white"/>
<path d="M109.665 30.3695C109.665 31.1525 109.513 31.9007 109.226 32.5967C108.938 33.2927 108.549 33.9018 108.059 34.4238C107.568 34.9458 107.01 35.3634 106.385 35.6592C105.759 35.955 105.1 36.1116 104.423 36.1116C103.747 36.1116 103.087 35.955 102.462 35.6592C101.836 35.3634 101.278 34.9458 100.788 34.4238C100.297 33.9018 99.9083 33.2927 99.6209 32.5967C99.3334 31.9007 99.1812 31.1525 99.1812 30.3695C99.1812 29.5864 99.3334 28.8556 99.6209 28.1596C99.9083 27.4636 100.297 26.8546 100.788 26.3326C101.278 25.8105 101.836 25.3929 102.462 25.0797C103.087 24.7839 103.747 24.6273 104.423 24.6273C105.1 24.6273 105.759 24.7839 106.385 25.0797C107.01 25.3929 107.568 25.8105 108.059 26.3326C108.549 26.8546 108.938 27.4636 109.226 28.1596C109.513 28.8556 109.665 29.5864 109.665 30.3695ZM98.3357 30.3695C98.3357 31.2569 98.5048 32.1095 98.843 32.8925C99.1643 33.6756 99.6209 34.3716 100.179 34.9632C100.737 35.5548 101.379 36.0246 102.123 36.3726C102.851 36.7206 103.628 36.8946 104.423 36.8946C105.218 36.8946 105.996 36.7206 106.74 36.3726C107.467 36.0246 108.126 35.5548 108.684 34.9632C109.242 34.3716 109.682 33.6756 110.02 32.8925C110.342 32.1095 110.511 31.2569 110.511 30.3695C110.511 29.482 110.342 28.6294 110.02 27.8464C109.682 27.0634 109.242 26.3674 108.684 25.7757C108.126 25.1841 107.467 24.7143 106.74 24.3663C105.996 24.0183 105.218 23.8443 104.423 23.8443C103.628 23.8443 102.851 24.0183 102.123 24.3663C101.379 24.7143 100.737 25.1841 100.179 25.7757C99.6209 26.3674 99.1643 27.0634 98.843 27.8464C98.5048 28.6294 98.3357 29.482 98.3357 30.3695Z" fill="white"/>
<path d="M115.42 25.1493H119.478C119.833 25.1493 120.171 25.2015 120.459 25.3059C120.746 25.4277 121 25.5843 121.203 25.7757C121.406 25.9671 121.558 26.2107 121.676 26.4718C121.795 26.7328 121.845 27.0286 121.845 27.3244C121.845 27.9856 121.626 28.525 121.203 28.9426C120.78 29.3776 120.205 29.5864 119.478 29.5864H115.42V25.1493ZM120.324 35.5896H115.42V30.3695H120.324C120.746 30.3695 121.118 30.4391 121.473 30.5609C121.812 30.7001 122.099 30.8915 122.353 31.1177C122.606 31.3439 122.792 31.6223 122.928 31.9355C123.046 32.2661 123.114 32.6141 123.114 32.9795C123.114 33.3449 123.046 33.693 122.928 34.0062C122.792 34.3368 122.606 34.6152 122.353 34.8414C122.099 35.0676 121.812 35.259 121.473 35.3808C121.118 35.52 120.746 35.5896 120.324 35.5896ZM119.478 24.3663H114.574V36.3726H120.324C120.848 36.3726 121.338 36.2856 121.795 36.0942C122.234 35.9202 122.623 35.6766 122.945 35.3634C123.266 35.0502 123.503 34.6848 123.689 34.2672C123.875 33.867 123.959 33.432 123.959 32.9795C123.959 32.6315 123.925 32.3183 123.841 32.0399C123.756 31.7789 123.638 31.5353 123.503 31.3091C123.367 31.1003 123.215 30.9089 123.046 30.7523C122.877 30.5957 122.708 30.4739 122.522 30.3695C122.099 30.1085 121.609 29.9345 121.085 29.8475V29.7604C121.372 29.656 121.643 29.4994 121.879 29.2906C122.082 29.0992 122.268 28.8556 122.437 28.5424C122.606 28.2466 122.691 27.829 122.691 27.3244C122.691 26.9242 122.606 26.5588 122.454 26.1933C122.302 25.8453 122.082 25.5321 121.795 25.2537C121.507 24.9927 121.152 24.7665 120.763 24.6099C120.374 24.4533 119.935 24.3663 119.478 24.3663Z" fill="white"/>
<path d="M128.433 33.1535H135.535L136.296 36.3726H137.141L134.351 24.3663H129.617L126.827 36.3726H127.672L128.433 33.1535ZM128.602 32.3705L130.293 25.1493H133.675L135.366 32.3705H128.602Z" fill="white"/>
<path d="M140.86 36.3726H149.822V38.6347H150.668V35.5896H149.315V24.3663H148.47V35.5896H141.706V24.3663H140.86V36.3726Z" fill="white"/>
<path d="M162.258 24.3663L155.156 34.8936H155.072V24.3663H154.226V36.3726H155.156L162.258 25.8453H162.343V36.3726H163.188V24.3663H162.258Z" fill="white"/>
<path d="M178.575 30.3695C178.575 31.1525 178.423 31.9007 178.136 32.5967C177.848 33.2927 177.459 33.9018 176.969 34.4238C176.479 34.9458 175.921 35.3634 175.295 35.6592C174.669 35.955 174.01 36.1116 173.333 36.1116C172.657 36.1116 171.997 35.955 171.372 35.6592C170.746 35.3634 170.188 34.9458 169.698 34.4238C169.207 33.9018 168.818 33.2927 168.531 32.5967C168.244 31.9007 168.091 31.1525 168.091 30.3695C168.091 29.5864 168.244 28.8556 168.531 28.1596C168.818 27.4636 169.207 26.8546 169.698 26.3326C170.188 25.8105 170.746 25.3929 171.372 25.0797C171.997 24.7839 172.657 24.6273 173.333 24.6273C174.01 24.6273 174.669 24.7839 175.295 25.0797C175.921 25.3929 176.479 25.8105 176.969 26.3326C177.459 26.8546 177.848 27.4636 178.136 28.1596C178.423 28.8556 178.575 29.5864 178.575 30.3695ZM167.246 30.3695C167.246 31.2569 167.415 32.1095 167.753 32.8925C168.074 33.6756 168.531 34.3716 169.089 34.9632C169.647 35.5548 170.29 36.0246 171.034 36.3726C171.761 36.7206 172.539 36.8946 173.333 36.8946C174.128 36.8946 174.906 36.7206 175.65 36.3726C176.377 36.0246 177.037 35.5548 177.595 34.9632C178.153 34.3716 178.592 33.6756 178.93 32.8925C179.252 32.1095 179.421 31.2569 179.421 30.3695C179.421 29.482 179.252 28.6294 178.93 27.8464C178.592 27.0634 178.153 26.3674 177.595 25.7757C177.037 25.1841 176.377 24.7143 175.65 24.3663C174.906 24.0183 174.128 23.8443 173.333 23.8443C172.539 23.8443 171.761 24.0183 171.034 24.3663C170.29 24.7143 169.647 25.1841 169.089 25.7757C168.531 26.3674 168.074 27.0634 167.753 27.8464C167.415 28.6294 167.246 29.482 167.246 30.3695Z" fill="white"/>
<path d="M183.484 24.3663V36.3726H184.33V30.7175H191.432V36.3726H192.277V24.3663H191.432V29.9345H184.33V24.3663H183.484Z" fill="white"/>
<path d="M197.015 24.3663V36.3726H197.861V30.7175H204.963V36.3726H205.808V24.3663H204.963V29.9345H197.861V24.3663H197.015Z" fill="white"/>
<path d="M218.832 32.4575C218.832 31.9181 218.731 31.3961 218.528 30.9263C218.325 30.4565 218.037 30.0389 217.682 29.6734C217.327 29.3254 216.888 29.047 216.38 28.8382C215.856 28.6468 215.298 28.5424 214.689 28.5424H211.392V24.3663H210.546V36.3726H214.689C215.298 36.3726 215.856 36.2682 216.38 36.0594C216.888 35.868 217.327 35.5896 217.682 35.2242C218.037 34.8762 218.325 34.4586 218.528 33.9888C218.731 33.519 218.832 32.9969 218.832 32.4575ZM217.987 32.4575C217.987 32.8925 217.902 33.3101 217.75 33.6756C217.581 34.0584 217.361 34.389 217.074 34.6674C216.786 34.9632 216.431 35.1894 216.025 35.346C215.619 35.5026 215.18 35.5896 214.689 35.5896H211.392V29.3254H214.689C215.18 29.3254 215.619 29.4124 216.025 29.569C216.431 29.7256 216.786 29.9519 217.074 30.2303C217.361 30.5261 217.581 30.8567 217.75 31.2395C217.902 31.6223 217.987 32.0225 217.987 32.4575ZM221.538 36.3726V24.3663H220.692V36.3726H221.538Z" fill="white"/>
<path d="M234.306 24.3663H233.376L229.909 29.4124H229.825L226.358 24.3663H225.428L229.402 30.1085L225.09 36.3726H226.02L229.825 30.8045H229.909L233.714 36.3726H234.644L230.332 30.1085L234.306 24.3663Z" fill="white"/>
<path d="M67.3851 47.3929C67.3851 46.8013 67.2837 46.2445 67.0638 45.7399C66.844 45.2353 66.5565 44.8003 66.1676 44.4175C65.7787 44.052 65.3221 43.7562 64.781 43.53C64.2399 43.3212 63.6481 43.2168 62.9886 43.2168H58.2539V55.2232H59.0994V51.5691H62.9886C63.6481 51.5691 64.2399 51.4647 64.781 51.2384C65.3221 51.0296 65.7787 50.7338 66.1676 50.351C66.5565 49.9856 66.844 49.5332 67.0638 49.0286C67.2837 48.524 67.3851 47.9846 67.3851 47.3929ZM66.5396 47.3929C66.5396 47.8628 66.4551 48.3152 66.286 48.7328C66.1169 49.1504 65.8802 49.5158 65.5589 49.8116C65.2376 50.1074 64.8656 50.351 64.4428 50.525C64.0032 50.699 63.5128 50.786 62.9886 50.786H59.0994V43.9998H62.9886C63.5128 43.9998 64.0032 44.0868 64.4428 44.2609C64.8656 44.4349 65.2376 44.6785 65.5589 44.9743C65.8802 45.2875 66.1169 45.6529 66.286 46.0531C66.4551 46.4707 66.5396 46.9231 66.5396 47.3929Z" fill="white"/>
<path d="M79.5548 54.4401H72.2836V49.568H78.0329V48.785H72.2836V43.9998H79.5548V43.2168H71.4382V55.2232H79.5548V54.4401Z" fill="white"/>
<path d="M83.2683 43.2168V55.2232H96.9651V43.2168H96.1196V54.4401H90.5395V43.2168H89.694V54.4401H84.1138V43.2168H83.2683Z" fill="white"/>
<path d="M109.82 54.4401H102.549V49.568H108.299V48.785H102.549V43.9998H109.82V43.2168H101.704V55.2232H109.82V54.4401Z" fill="white"/>
<path d="M113.534 43.2168V55.2232H114.379V49.568H121.481V55.2232H122.327V43.2168H121.481V48.785H114.379V43.2168H113.534Z" fill="white"/>
<path d="M135.097 43.2168L127.995 53.7441H127.91V43.2168H127.065V55.2232H127.995L135.097 44.6959H135.182V55.2232H136.027V43.2168H135.097Z" fill="white"/>
<path d="M145.242 41.6508C145.885 41.6508 146.409 41.442 146.832 41.007C147.238 40.5893 147.44 40.0499 147.44 39.3887H146.764C146.764 39.8237 146.612 40.2065 146.324 40.5023C146.037 40.7982 145.665 40.9548 145.242 40.9548C144.819 40.9548 144.447 40.7982 144.16 40.5023C143.873 40.2065 143.72 39.8237 143.72 39.3887H143.044C143.044 40.0499 143.247 40.5893 143.67 41.007C144.075 41.442 144.6 41.6508 145.242 41.6508ZM148.793 43.2168L141.691 53.7441H141.607V43.2168H140.761V55.2232H141.691L148.793 44.6959H148.878V55.2232H149.723V43.2168H148.793Z" fill="white"/>
<mask id="path-3-inside-1_13_5" fill="white">
<path fill-rule="evenodd" clip-rule="evenodd" d="M33.11 31.512C34.4395 29.4777 35.2154 27.028 35.2154 24.3918C35.2154 17.3387 29.6615 11.621 22.8104 11.621C15.9593 11.621 10.4054 17.3387 10.4054 24.3918C10.4054 27.0282 11.1814 29.478 12.511 31.5123L22.8107 20.909L33.11 31.512Z"/>
</mask>
<path fill-rule="evenodd" clip-rule="evenodd" d="M33.11 31.512C34.4395 29.4777 35.2154 27.028 35.2154 24.3918C35.2154 17.3387 29.6615 11.621 22.8104 11.621C15.9593 11.621 10.4054 17.3387 10.4054 24.3918C10.4054 27.0282 11.1814 29.478 12.511 31.5123L22.8107 20.909L33.11 31.512Z" fill="#E53151"/>
<path d="M33.11 31.512L28.8062 35.6925L34.0305 41.0708L38.1325 34.7945L33.11 31.512ZM12.511 31.5123L7.48868 34.795L11.5907 41.071L16.8149 35.6929L12.511 31.5123ZM22.8107 20.909L27.1145 16.7284L22.8107 12.2977L18.5069 16.7284L22.8107 20.909ZM29.2154 24.3918C29.2154 25.8371 28.7931 27.15 28.0875 28.2295L38.1325 34.7945C40.086 31.8054 41.2154 28.219 41.2154 24.3918H29.2154ZM22.8104 17.621C26.1847 17.621 29.2154 20.4869 29.2154 24.3918H41.2154C41.2154 14.1905 33.1384 5.62103 22.8104 5.62103V17.621ZM16.4054 24.3918C16.4054 20.4869 19.4362 17.621 22.8104 17.621V5.62103C12.4825 5.62103 4.4054 14.1905 4.4054 24.3918H16.4054ZM17.5334 28.2296C16.8278 27.1501 16.4054 25.8372 16.4054 24.3918H4.4054C4.4054 28.2192 5.53493 31.8058 7.48868 34.795L17.5334 28.2296ZM16.8149 35.6929L27.1145 25.0896L18.5069 16.7284L8.20722 27.3317L16.8149 35.6929ZM18.5069 25.0896L28.8062 35.6925L37.4138 27.3314L27.1145 16.7284L18.5069 25.0896Z" fill="#E53151" mask="url(#path-3-inside-1_13_5)"/>
<rect x="4.18057" width="10.5899" height="10.5899" transform="matrix(0.696761 -0.717303 0.696761 0.717303 12.5216 48.5786)" stroke="black" stroke-width="6"/>
<rect x="4.18056" width="19.4919" height="19.4919" transform="matrix(0.696761 -0.717304 0.696761 0.717304 6.31459 42.1928)" fill="#0054D1" stroke="#0054D1" stroke-width="6"/>
</svg>
