<svg width="88" height="88" viewBox="0 0 88 88" fill="none" xmlns="http://www.w3.org/2000/svg">
<path d="M7.97363 3.86499V74.2418C8.61634 78.7407 12.0227 85.8105 20.5065 85.8105" stroke="#06BCC1" stroke-width="3" stroke-linecap="square" stroke-linejoin="round"/>
<path d="M34.0039 3.86499V74.2418C33.3612 78.7407 29.9548 85.8105 21.4711 85.8105" stroke="#06BCC1" stroke-width="3" stroke-linecap="square" stroke-linejoin="round"/>
<path d="M2.18945 1.93713H38.8239" stroke="#06BCC1" stroke-width="3" stroke-linecap="round"/>
<path d="M55.2129 3.86499V74.2418C55.8556 78.7407 59.262 85.8105 67.7457 85.8105" stroke="#06BCC1" stroke-width="3" stroke-linecap="square"/>
<path d="M81.2422 3.86499V74.2418C80.5995 78.7407 77.1931 85.8105 68.7093 85.8105" stroke="#06BCC1" stroke-width="3" stroke-linecap="square"/>
<path d="M49.4287 1.93677H86.0632" stroke="#06BCC1" stroke-width="3" stroke-linecap="round"/>
<path d="M80.2786 19.2902H55.2129V67.4934C58.4264 72.6351 58 83.8825 68.7098 83.8825C72.5661 83.8825 77.7077 80.3476 80.2786 76.17V19.2902Z" fill="#06BCC1" stroke="#06BCC1" stroke-width="3" stroke-linecap="round"/>
</svg>
