<svg width="40" height="52" viewBox="0 0 40 52" fill="none" xmlns="http://www.w3.org/2000/svg">
<path d="M39.61 23.42C39.4468 30.4356 37.7397 37.329 34.61 43.6099C31.35 50.3399 25.45 52.88 18.3 50.66C15.2118 49.8037 12.3493 48.2798 9.91467 46.1959C7.48002 44.112 5.53262 41.519 4.21001 38.6C3.04335 36.1527 2.04113 33.6305 1.21001 31.0499C0.120015 27.4199 0.719966 25.5299 3.90997 23.7499C12.5884 18.9228 19.9954 12.102 25.52 3.84995C25.9731 3.19497 26.4925 2.58843 27.07 2.03995C29.61 -0.380045 31.28 -0.340069 33.32 2.60993C36.4971 7.41636 38.5197 12.8923 39.23 18.6099C39.51 20.4999 39.53 22.42 39.61 23.42Z" fill="white"/>
</svg>
