<svg width="324" height="360" viewBox="0 0 324 360" fill="none" xmlns="http://www.w3.org/2000/svg">
<path d="M256.32 305.73C262.21 310.79 258.74 316.2 257.43 321.73C259.04 322.42 260.43 323 261.88 323.64C265.71 325.39 266.88 327.64 266.09 331.64C265.71 333.51 264.96 335.3 264.59 337.18C263.67 341.85 264.85 344.49 269.19 346.56C273.79 348.75 278.58 350.56 283.27 352.56C284.99 353.31 286.67 354.16 289.27 355.38C288.087 355.904 286.879 356.368 285.65 356.77C279.13 358.42 272.59 359.54 265.77 358.77C259.391 358.03 253.346 355.518 248.32 351.52C243.55 347.77 238.86 343.91 234.1 340.13C230.349 337.346 227.709 333.32 226.65 328.77C226.097 326.27 225.079 323.895 223.65 321.77C217.33 312.77 213.48 302.61 210.65 292.08C204.843 270.36 199.177 248.6 193.65 226.8C192.602 222.266 189.871 218.298 186.01 215.7C180.4 211.7 174.82 207.7 169.47 203.43C157.87 194.13 148.92 182.43 140.76 170.18C133.4 159.12 132.39 147.35 138.62 135.23C141.05 130.52 142.95 125.52 142.45 120.1C142.066 117.266 141.395 114.479 140.45 111.78C139.9 109.97 138.45 109.38 136.63 110.17L134.42 111.09C129.51 113.09 124.99 112.16 120.92 108.98C119.31 107.674 117.814 106.232 116.45 104.67C109.6 97.0197 101.122 91.0021 91.64 87.0601C90.8891 86.7823 90.1604 86.448 89.46 86.0601C81.96 81.4201 73.7 79.5301 65.01 78.4601C56.01 77.3601 48.01 73.0501 40.48 68.1901C38.8887 67.1371 37.7587 65.5171 37.32 63.6601C36.32 57.2201 32.91 52.0901 29.32 46.9901C26.8424 43.3902 24.019 40.0409 20.89 36.9901C21.01 37.9301 21.1 38.8701 21.28 39.8001C21.49 40.8901 22.1 42.0101 21.97 43.0501C21.77 44.6601 21.55 47.0501 20.51 47.6101C18.51 48.7701 16.98 46.9401 16.05 45.1801C9.66997 33.1801 3.21997 21.1801 2.40997 7.18011C2.29997 5.18011 1.40997 3.26012 0.719971 0.620117C5.71997 1.62012 10.34 2.45012 14.93 3.54012C27.1 6.44012 38.82 10.5401 49.67 16.8901C56.5026 20.7717 62.5797 25.8529 67.61 31.8901C68.4273 32.7411 69.0141 33.7863 69.315 34.9272C69.616 36.068 69.6211 37.2668 69.33 38.4101C68.4139 42.7372 68.8875 47.2431 70.6832 51.2852C72.4789 55.3273 75.505 58.6992 79.33 60.9201C82.43 62.7301 84.98 62.6401 87.63 60.1001C89.1585 58.4859 90.5003 56.7047 91.63 54.7901C92.76 53.0501 93.53 51.0801 94.68 49.3701C96.76 46.2901 99.75 45.0601 102.96 45.9801C104.534 46.346 105.954 47.1975 107.018 48.4141C108.082 49.6307 108.737 51.151 108.89 52.7601C109.037 54.6581 108.868 56.5674 108.39 58.4101C107.9 60.7401 106.95 62.9801 106.45 65.3101C106.03 67.2601 105.98 69.3101 105.72 71.7301H111C118.87 71.6701 123.21 76.7301 121.71 84.3601C120.83 88.8301 121.81 92.8801 123.78 96.8501C124.128 97.7432 124.755 98.5 125.567 99.0081C126.38 99.5162 127.335 99.7484 128.29 99.6701C133.41 99.5301 138.52 99.4901 143.64 99.4701C146.41 99.4701 148.51 98.1201 150.42 96.3401C154.42 92.6201 158.42 88.9601 162.22 85.1001C164.77 82.5301 167.29 81.5701 170.76 83.3201C175.68 85.8001 181.03 85.3201 186.29 84.9401C189.642 84.7016 192.98 84.291 196.29 83.7101C198.341 83.3297 200.45 83.4011 202.471 83.9192C204.492 84.4373 206.375 85.3897 207.99 86.7101C211.04 89.0401 213.99 91.5201 216.99 93.8501C221.479 97.4958 227.022 99.5995 232.8 99.8501C237.618 100.133 242.233 101.893 246.017 104.889C249.801 107.886 252.57 111.975 253.95 116.6C255.19 120.91 257.56 122.83 261.86 123.6C276.3 126.267 290.7 129.107 305.06 132.12C308.485 132.875 311.764 134.182 314.77 135.99C322.19 140.41 324.84 147.99 322.25 156.25C321.754 157.935 321.084 159.564 320.25 161.11C314.9 170.49 313.32 180.61 314.57 191.18C315.9 202.44 311.99 211.13 302.57 217.48C295.42 222.3 291.66 229.16 290.09 237.63C288.75 244.82 286.7 251.89 284.65 258.92C282.996 264.484 279.578 269.36 274.91 272.81C271.76 275.25 271.83 275.33 273.31 279.13C275.31 284.18 274.71 286.25 270.31 289.31C268.87 290.31 267.16 290.97 265.85 292.1C264.54 293.23 262.69 294.78 262.77 296.04C263.07 300.69 260.19 303 256.32 305.73ZM15.32 25.0001C17.06 19.5301 16.42 18.0701 11.77 16.7101L15.32 25.0001Z" fill="white"/>
</svg>
