<svg width="38" height="66" viewBox="0 0 38 66" fill="none" xmlns="http://www.w3.org/2000/svg">
<path d="M34.83 5.51035C34.83 5.66035 34.95 5.86035 34.88 5.95035C30.88 11.4603 31.69 16.9504 34.01 23.0004C36.01 28.1504 36.62 33.8103 37.72 39.2603C38.53 43.3303 37.08 46.5303 33.37 48.4503C30.0138 50.2777 26.5585 51.917 23.0201 53.3604C18.0201 55.2904 13.47 57.6803 10.23 62.1503C9.19728 63.2592 8.04346 64.2488 6.79008 65.1004C5.02008 62.6404 3.43006 60.4703 1.90006 58.2603C0.0500633 55.5903 -0.0199611 52.7203 2.00004 50.2603C4.31374 47.4385 6.87751 44.8312 9.66007 42.4704C12.0872 40.4047 14.7773 38.6696 17.6601 37.3103C21.1201 35.7303 22.2901 33.1704 22.2901 29.7204C22.3119 24.4458 21.2676 19.2213 19.22 14.3604C18.1 11.7404 16.9401 9.14034 15.9201 6.79034L20.3101 0.860352L34.83 5.51035Z" fill="white"/>
</svg>
