<svg width="25" height="64" viewBox="0 0 25 64" fill="none" xmlns="http://www.w3.org/2000/svg">
<path d="M19.07 0.470215C23.59 4.47021 25.5 8.67021 23.82 14.3402C21.8355 21.5645 20.8101 29.0184 20.77 36.5102C20.6234 41.9236 20.31 47.3302 19.83 52.7302C19.716 54.4892 19.2073 56.1999 18.3417 57.7355C17.4761 59.271 16.2759 60.5919 14.83 61.6002C10.43 64.7402 6.19002 63.8102 4.56002 58.7102C3.13791 53.8413 2.13427 48.8599 1.56002 43.8202C1.02002 39.9002 1.09001 35.8902 0.930011 31.9202C0.709544 27.5789 1.92173 23.2853 4.38002 19.7002C8.51002 13.7002 12.92 7.80023 17.24 1.89023C17.791 1.34536 18.4054 0.868596 19.07 0.470215V0.470215Z" fill="white"/>
</svg>
