<svg width="32" height="35" viewBox="0 0 32 35" fill="none" xmlns="http://www.w3.org/2000/svg">
<path d="M25.27 26.8101L29.27 31.4801C28.7671 32.4529 27.9747 33.2457 27.0021 33.749C26.0295 34.2523 24.9246 34.4414 23.84 34.2901C15.75 33.6701 8.66005 30.9701 3.28005 24.5501C0.590046 21.3501 -0.519971 17.9901 1.20003 13.9901C2.12263 11.4492 3.20134 8.96784 4.43001 6.56007C5.59556 4.66823 7.081 2.9933 8.82002 1.61006C11.06 -0.209943 12.5001 0.190079 13.6601 2.82008C14.8201 5.45008 15.66 8.18009 16.59 10.8901C18.59 16.7101 19.32 17.2801 25.33 17.8901C26.9036 17.9873 28.4412 18.4022 29.85 19.1101C32.37 20.5401 32.4 22.7301 30.01 24.4001C28.4901 25.3165 26.906 26.122 25.27 26.8101Z" fill="white"/>
</svg>
