<svg width="143" height="70" viewBox="0 0 143 70" fill="none" xmlns="http://www.w3.org/2000/svg">
<path d="M53.37 30.78C51.4816 30.5595 49.6083 30.2256 47.76 29.78C46.84 29.5 45.59 28.6 45.48 27.84C45.4934 27.3055 45.6393 26.7826 45.9046 26.3184C46.1699 25.8541 46.5463 25.463 47 25.18C50.9292 23.0768 54.995 21.2394 59.17 19.68C63.26 18.28 66.73 16.76 68.54 12.33C69.19 10.76 71.54 9.33005 73.32 8.86005C85.44 6.07005 97.56 3.21005 109.82 1.18005C114.37 0.430048 119.33 1.60005 124.03 2.37005C129.21 3.22005 134.31 4.60005 139.44 5.80005C140.469 6.14463 141.471 6.56236 142.44 7.05005L108.82 52.35C90.39 42.35 72.98 44.75 55.7 54.19C51.2743 56.7112 46.5778 58.7239 41.7 60.19C29.7 63.56 17.61 66.43 5.54 69.42C3.77845 69.7316 1.9976 69.9221 0.21 69.99L0 69C0.878721 68.5105 1.78716 68.0763 2.72 67.7C9.06 65.53 15.43 63.46 21.72 61.27C31.45 57.92 32.14 56.4 28.39 47.11C26.39 42.25 26.65 41.65 31.06 39.11C37.06 35.62 43.73 33.94 50.46 32.54C51.46 32.33 52.46 31.94 53.46 31.63L53.37 30.78Z" fill="white"/>
</svg>
