<svg width="205" height="137" viewBox="0 0 205 137" fill="none" xmlns="http://www.w3.org/2000/svg">
<path d="M202.39 34.0002C200.57 35.5302 198.78 36.9402 197.06 38.4002C196.389 38.9595 195.608 39.3715 194.767 39.6092C193.926 39.847 193.045 39.9052 192.18 39.7802C189.29 39.3808 186.358 40.1273 184.01 41.8602C183.155 42.4837 182.155 42.8781 181.105 43.0059C180.055 43.1336 178.989 42.9905 178.01 42.5902C176.798 42.1068 175.527 41.7873 174.23 41.6402C173.324 41.5206 172.402 41.6028 171.531 41.8812C170.66 42.1595 169.862 42.6269 169.193 43.25C168.524 43.8731 168.001 44.6365 167.662 45.4853C167.322 46.3342 167.175 47.2476 167.23 48.1602C167.36 50.0802 167.63 51.9702 167.79 53.8502C167.88 54.8502 169.22 55.9402 170.23 56.6002C173.834 58.8286 176.92 61.8016 179.281 65.3199C181.642 68.8383 183.224 72.8207 183.92 77.0002C184.41 79.7102 186.14 82.2502 187.53 84.7502C190.86 90.7502 190.59 94.2502 186.33 99.6402C184.765 101.443 183.422 103.427 182.33 105.55C178.75 113.47 172.63 118.44 164.87 121.62C163.627 122.106 162.358 122.523 161.07 122.87C156.79 124 154.6 126.69 154.92 131.62C154.902 133.038 154.373 134.401 153.43 135.46C151.29 137.81 148 136.78 147.28 133.72L147.04 132.72C146.86 131.863 146.497 131.054 145.977 130.349C145.456 129.644 144.79 129.059 144.024 128.634C143.257 128.209 142.408 127.954 141.535 127.886C140.661 127.818 139.783 127.939 138.96 128.24C138.647 128.362 138.345 128.513 138.06 128.69C137.099 129.262 135.996 129.554 134.878 129.533C133.759 129.512 132.669 129.178 131.73 128.57C123.21 123.24 116.18 116.65 113.21 106.28C112.99 105.51 112.72 104.76 112.45 104C108.81 93.7502 102.59 89.4402 91.65 90.2402C86.5492 90.5289 81.4955 91.3773 76.58 92.7702C69.1765 94.9484 61.2895 94.8543 53.94 92.5002C36.52 87.3502 21.57 78.2002 9.65004 64.4202C7.28887 61.6085 5.23707 58.5509 3.53004 55.3002C-2.24996 44.6602 1.86 33.5802 7.23 27.6902C13.9 20.3702 24.23 18.1802 34.08 22.2102C53.76 30.2102 74.45 34.2102 95.31 37.2102C102.622 38.3348 110.077 38.1145 117.31 36.5602C122.38 35.4402 127.12 33.6102 131.03 30.1002C134.94 26.5902 137.34 22.5302 137.59 17.2502C137.71 14.7102 138.17 13.6102 140.34 10.1102C141.17 8.76018 141.96 7.41018 142.82 6.11018C143.765 4.4132 144.969 2.87458 146.39 1.55018C148.6 -0.23982 151.13 0.26018 153.74 0.55018C153.905 0.570482 154.069 0.60053 154.23 0.640177C157.814 1.71305 161.273 3.16457 164.55 4.97018C170.45 8.15018 176.19 11.6302 181.93 15.1102C186.03 17.6002 190.11 18.2502 194.69 16.3502C198.51 14.7602 199.88 15.2702 201.36 19.1402C202.36 21.6202 203.43 24.6402 204.36 27.3402C204.741 28.5195 204.757 29.7864 204.405 30.9749C204.054 32.1633 203.351 33.2178 202.39 34.0002V34.0002Z" fill="white"/>
</svg>
