<svg width="39" height="16" viewBox="0 0 39 16" fill="none" xmlns="http://www.w3.org/2000/svg">
<path d="M0.390015 2.00022C2.01001 1.60022 3.63999 0.790218 5.23999 0.860218C15.92 1.30022 26.59 1.93022 37.24 2.51022C37.6624 2.63973 38.0684 2.81757 38.45 3.04022C37.9423 3.94134 37.3638 4.80071 36.72 5.61022C34.13 8.43022 31.52 11.2402 28.82 13.9402C26.53 16.2302 25.65 16.3002 22.99 14.6202C21.78 13.8602 20.73 12.8402 19.53 12.0602C18.5706 11.3485 17.471 10.8485 16.3039 10.5933C15.1368 10.3382 13.9289 10.3337 12.76 10.5802C11.2536 10.8921 9.68498 10.6319 8.35999 9.85022C5.49999 7.85022 2.95998 5.46022 0.289978 3.22022C0.339978 2.81022 0.360015 2.40022 0.390015 2.00022Z" fill="white"/>
</svg>
