<svg width="602" height="484" viewBox="0 0 602 484" fill="none" xmlns="http://www.w3.org/2000/svg">
<path d="M32.92 153.61C38.04 154.05 42.92 154.4 47.83 154.91C52.74 155.42 54.24 153.7 52.69 149.21C51.9287 147.311 50.7889 145.586 49.34 144.14C47.27 141.93 44.89 140.02 42.67 137.95C42.48 137.77 42.46 137.4 42.26 136.84C42.93 136.34 43.65 135.76 44.4 135.23C52.25 129.73 60.08 124.23 67.96 118.77C70.3915 116.97 72.9592 115.362 75.64 113.96C79.54 112.08 81.53 109.39 81.33 104.96C81.3151 102.904 81.6119 100.858 82.21 98.8903C82.3603 97.9998 82.8489 97.2018 83.5739 96.6632C84.2989 96.1246 85.204 95.8871 86.1 96.0003C87.7229 96.4436 89.1582 97.4016 90.19 98.7303C91.14 99.9003 91.34 101.67 91.94 103.14C93.94 107.99 95.89 109.47 101.06 109.06C106.78 108.61 112.47 107.77 118.16 106.94C119.297 106.855 120.379 106.418 121.257 105.691C122.135 104.964 122.765 103.981 123.06 102.88C123.4 101.484 124.05 100.183 124.962 99.073C125.875 97.9632 127.026 97.0735 128.33 96.4703C129.202 96.0591 129.956 95.4328 130.52 94.6503C132.45 91.2803 134.71 88.4203 139.88 88.2403C136.7 85.5503 133.8 85.7703 131.08 85.3903C128.72 85.0603 126.25 85.0303 124.08 84.2703C119.8 82.8103 118.64 79.3603 120.95 75.5103C122.1 73.6103 123.69 71.9703 124.85 70.0803C125.25 69.4303 124.93 68.3403 124.94 67.4603C124.08 67.4603 122.94 67.2103 122.4 67.6603C118.73 70.9603 115.12 74.3503 111.64 77.8703C110.09 79.4303 110.46 81.4303 111.43 83.2303C112.72 85.6503 112.25 87.7903 110.73 89.9303C108.73 92.7903 106.92 95.8503 104.73 98.6003C100.65 103.79 97.22 103.77 93.08 98.7803C92.8734 98.5364 92.6829 98.2792 92.51 98.0103C89.99 93.9303 86.88 92.6203 82 94.4003C77.28 96.1303 72.29 90.5703 74 85.7803C74.8787 83.5468 76.2453 81.5379 78 79.9003C89.23 69.2203 100.6 58.6803 111.92 48.0903C114.036 46.0908 116.859 45.012 119.77 45.0903C123.29 45.0903 126.97 44.5403 130.29 45.3903C135.83 46.8003 141.29 46.5403 146.9 46.7903C154.48 47.1403 162.03 48.9603 169.52 50.5603C174.31 51.5603 178.62 51.8303 182.52 48.1203C182.982 47.7061 183.53 47.4011 184.126 47.2279C184.721 47.0548 185.348 47.018 185.96 47.1203C189.6 48.3703 192.96 46.9603 196.31 46.3103C200.85 45.4303 205.37 44.4403 209.89 43.5003C212.21 43.0303 214.46 42.7803 216.36 40.8303C217.36 39.8303 219.57 39.5503 221.21 39.6303C225.03 39.8003 228.83 40.4303 232.64 40.7803C234.64 40.9703 236.73 40.9803 238.96 41.0703C239.52 38.9303 239.96 37.0703 240.5 35.3003C241.69 31.6703 243.38 30.4603 247.15 30.3003C254.29 29.9703 256.35 30.5203 262.83 34.6403C263.59 29.3503 267.68 27.5403 271.83 25.6403C275.31 24.0303 278.53 21.8603 282.07 20.4203C285.61 18.9803 289.35 18.1903 292.99 17.0603C294.85 16.5432 296.565 15.6019 298 14.3103C297.273 13.9126 296.514 13.578 295.73 13.3103C290.94 12.0403 286.13 10.8903 281.36 9.59034C279.811 9.26127 278.345 8.62173 277.05 7.71034C276.05 6.89034 275 5.12034 275.28 4.17034C275.919 2.7944 277.066 1.71926 278.48 1.17034C279.859 0.749862 281.331 0.749862 282.71 1.17034C291.52 3.42034 300.38 5.51034 309.05 8.17034C315.464 10.1156 322.046 11.4548 328.71 12.1703C332.04 12.5703 335.37 12.9703 338.71 13.3903C342.05 13.8103 344.95 14.9503 345.54 19.3903C354.48 19.0803 363.26 18.9703 372 18.3903C380.74 17.8103 389.26 18.3903 397.47 21.5203C400.894 22.8907 404.615 23.3523 408.27 22.8603C412.06 22.3303 415.84 21.7203 419.62 21.0903C420.731 20.7462 421.814 20.3183 422.86 19.8103C420.34 18.6703 418.86 17.8903 417.39 17.3603C413.9 16.1403 413.33 15.5403 413.58 12.9203C413.97 8.92034 415.58 6.73034 418.64 6.41034C420.712 6.24699 422.793 6.20358 424.87 6.28034C429.87 6.28034 434.79 6.39034 439.74 6.46034C441.87 6.46034 443.9 6.78034 445.25 9.12034L442.18 14.5403C446.94 15.0403 451.41 15.0403 455.64 16.0403C468.37 19.0403 480.92 22.6703 492.8 28.3503C495.264 29.4184 497.954 29.8615 500.63 29.6403C507.47 29.1603 514.31 28.3603 521.1 27.3803C534.39 25.4703 547.53 26.4803 560.69 28.6903C569.5 30.1603 578.4 31.1003 587.26 32.3103C589.473 32.617 591.67 33.0103 593.85 33.4903C595.591 33.8337 597.196 34.6706 598.475 35.9011C599.753 37.1316 600.65 38.7039 601.06 40.4303C602.29 44.6203 599.93 48.0003 595.58 47.7803C592.75 47.6403 589.97 46.6903 587.17 46.1103L581.31 44.8903C584.62 49.5103 591.59 47.8903 592.73 54.5603C590.33 54.5603 588.16 54.7203 586.03 54.5603C581.6 54.1703 578.21 55.5603 576.03 59.6203C574.41 62.6203 571.59 64.1103 568.43 65.0003C566.75 65.4703 565.04 65.8503 563.43 66.2503C562.77 68.3403 564.3 69.0003 565.43 69.8003C573.49 75.7303 574.57 84.3803 574.49 93.3603C574.49 96.7603 571.93 98.5403 568.58 97.9003C566.862 97.5672 565.241 96.8493 563.84 95.8003C557.42 90.8003 551.11 85.6403 544.84 80.5003C541.68 77.9303 540.55 74.7703 541.78 70.7003C542.355 68.248 542.76 65.7587 542.99 63.2503H529.35C530.54 65.7603 531.44 67.6803 532.43 69.7603C530.01 71.5403 527.36 71.8203 524.66 71.8503C518.58 71.9003 512.5 72.0803 506.43 71.9303C502.1 71.8203 499.11 73.4403 497.15 77.3303C495.66 80.3303 493.88 83.1203 491.96 86.4603C498.41 87.8403 504.41 89.1103 510.54 87.1603C514.47 85.9103 517.64 86.8403 520.61 89.6503C523.97 92.8203 527.61 95.6503 531.09 98.7703C536.24 103.31 539.3 109.36 542.3 115.31C543.23 117.15 542.69 120.05 542.09 122.31C541.36 125.07 539.42 125.21 537.71 122.9C536.71 121.49 535.78 119.97 534.8 118.51C533.82 117.05 533.02 115.88 531.8 114.06C526.65 119.06 525.36 124.98 526.27 131.54C526.78 135.25 526.87 135.24 523.06 136.9C522.719 134.878 522.272 132.875 521.72 130.9C520.849 127.85 519.673 124.895 518.21 122.08C516.31 118.82 513.75 118.08 510.46 119.78C506.24 121.96 502.54 121.29 498.72 118.98C492.853 115.42 486.937 111.934 480.97 108.52C477.161 106.149 472.876 104.647 468.42 104.12C466.348 103.809 464.23 104.172 462.381 105.158C460.531 106.143 459.048 107.697 458.15 109.59C456.93 111.8 455.3 113.8 454.15 116.05C453.13 117.845 452.471 119.822 452.21 121.87C451.75 129.02 447.77 133.69 441.89 136.96C434.66 140.96 426.69 141.59 418.63 141.31C403.84 140.81 389.54 137.31 375.3 133.76C366.965 131.606 358.764 128.961 350.74 125.84C332.17 118.77 313.92 132 315.67 151.76C316 155.45 317.75 159.07 319.23 162.55C320.226 164.735 321.544 166.757 323.14 168.55C337.84 185.84 356.08 197.16 378.77 200.45C382.77 201.03 386.99 200.06 391.06 199.45C395.94 198.71 400.73 197.25 405.62 196.68C418.75 195.15 424.68 200.75 427.27 210.07C430.95 223.3 440.14 231.41 451.73 237.41C453.692 238.384 455.403 239.797 456.73 241.54C459.33 244.97 462.07 248.31 464.95 251.54C469.87 257 471.07 263.11 467.89 269.67C466.171 273.248 463.978 276.578 461.37 279.57C458.52 282.8 456.46 282.71 453.05 280.06C449.64 277.41 446.45 274.51 443.1 271.78C441.79 270.71 440.33 269.78 438.92 268.84C434.26 276.1 436.51 283.24 440.98 286.95C442.45 288.17 443.98 289.3 445.5 290.5C447.825 292.22 449.659 294.52 450.819 297.169C451.978 299.818 452.424 302.725 452.11 305.6C451.99 307.03 452.75 308.53 453 310.01C453.204 311.064 453.285 312.138 453.24 313.21C453.08 315.44 452.81 317.66 452.51 319.87C452.18 322.37 452.51 324.45 454.59 326.33C455.92 327.55 456.67 329.5 457.43 331.23C459.6 336.17 461.63 341.16 464.08 346.99C463.7 347.93 462.95 349.82 462.08 351.93C457.08 351.27 453.95 348.38 451.19 344.75C449.57 342.62 447.7 340.69 445.96 338.64C444.227 336.771 442.598 334.808 441.08 332.76C434.447 322.967 427.887 313.134 421.4 303.26C420.396 301.533 419.498 299.746 418.71 297.91C425.01 295.12 430.15 299.06 436.17 299.18C434.872 295.143 432.773 291.409 430 288.2C425.637 283.018 423.256 276.455 423.28 269.68C423.28 265.87 422.96 262.06 422.67 258.27C422.488 257.24 422.19 256.233 421.78 255.27C421.25 255.04 420.93 254.77 420.67 254.82C415.54 255.76 412.35 253.46 409.73 249.17C407.044 245.007 404.092 241.022 400.89 237.24C395.12 230.1 388.34 230.17 382.48 237.33C380.87 239.33 379.48 241.44 377.94 243.51C374.94 247.51 371.7 251.19 366.94 253.24C364.11 254.46 362.94 256.76 363.09 259.78C363.19 263.13 363.09 266.49 363.25 269.84C363.53 276.94 359.62 282.24 355.69 287.5C354.6 288.96 353.13 288.69 351.97 287.5C351.197 286.684 350.525 285.778 349.97 284.8C342.32 271.88 334.73 258.93 330.15 244.5C328.96 240.75 327.15 238.18 322.73 237.5C320.25 237.1 317.87 235.22 315.73 233.61C313.858 232.105 312.2 230.352 310.8 228.4C309.779 226.863 308.345 225.645 306.663 224.886C304.98 224.127 303.118 223.859 301.29 224.11C293.29 224.93 285.68 223.22 278.44 220C273.09 217.62 267.74 216 261.78 216.55C257.49 216.92 254.2 214.46 251.18 211.73C247.86 208.73 244.4 205.93 239.85 204.55C239.429 205.424 239.258 206.398 239.355 207.363C239.452 208.328 239.814 209.248 240.4 210.02C241.226 211.394 242.235 212.649 243.4 213.75C247.181 216.89 249.708 221.283 250.52 226.13C251.82 233.84 257.05 236.13 264.42 233.54C268.133 232.301 271.288 229.79 273.33 226.45C277.51 229 281.53 231.51 285.61 233.93C287.78 235.21 287.74 236.75 286.66 238.75C281.51 248.25 274.66 255.95 264.79 260.87C253.79 266.36 242.89 272.04 231.95 277.65C230.83 278.22 229.75 278.88 228.69 279.46C230.06 285.04 231.79 286.46 236.95 285.57C242.29 284.65 247.55 283.29 252.87 282.19C254.7 281.81 256.57 281.63 259.2 281.24C258.967 283.229 258.634 285.205 258.2 287.16C254.93 298.88 248.86 309.16 241.46 318.69C234.36 327.897 227.1 337 219.68 346C216.05 350.4 214.52 355.29 215.59 360.71C217.07 368.21 219.07 375.6 220.88 383.04C221.14 384.12 221.53 385.17 221.88 386.23C224.44 393.68 222.54 400.04 217.11 405.51C213.11 409.59 209.03 413.7 204.87 417.66C201.63 420.75 200.43 424 202.38 428.36C204.25 432.52 202.99 436.36 199.52 439.09C194.59 442.89 191.85 447.89 189.98 453.64C187.26 462.01 181.86 468.36 174.62 473.26C166.62 478.66 157.62 481.19 148.35 483.12C143.79 484.07 140.52 482.06 138.93 477.69C138.07 475.12 137.402 472.489 136.93 469.82C136.343 466.003 134.482 462.496 131.65 459.87C129.164 457.556 127.622 454.404 127.32 451.02C125.939 440.873 122.676 431.072 117.7 422.12C112.98 413.55 112.63 404.77 117.08 395.98C118.727 392.945 119.619 389.557 119.682 386.104C119.745 382.651 118.976 379.234 117.44 376.14C113.01 366.77 108.36 357.51 103.6 348.3C102.22 345.62 101.33 343.17 102.22 340.13C102.948 337.511 103.454 334.835 103.73 332.13C104.37 326.37 101.51 323.32 95.73 323.41C95.0902 323.434 94.4541 323.518 93.83 323.66C89.9 324.48 87.2 323.4 85.32 319.49C83.14 314.97 81.52 314.56 76.83 316.73C69.4596 320.258 61.3912 322.086 53.22 322.08C50.1764 322.149 47.1532 322.596 44.22 323.41C37.82 325 32.15 323.97 27.37 319.31C19.5 311.61 11.59 303.94 3.89998 296.06C0.539983 292.62 -0.100015 288.13 0.839985 283.52C2.78871 274.78 3.46236 265.804 2.83998 256.87C2.40998 251.54 4.39999 246.79 7.43999 242.56C12.65 235.29 18.01 228.13 23.44 220.98C25.0364 218.821 26.2631 216.412 27.07 213.85C28.14 210.61 30.28 207.69 32.07 204.7C34.42 200.7 37.07 196.94 39.22 192.86C40.78 189.86 40.32 189.25 37.38 187.6C36.2994 186.919 35.1578 186.34 33.97 185.87C28.97 184.2 27.67 180.29 27.78 175.67C27.877 173.278 28.2358 170.904 28.85 168.59C30 163.8 31.42 159.06 32.92 153.61ZM99.23 197.61C100.35 198.22 100.74 198.61 101.18 198.66C109.918 199.671 118.344 202.513 125.91 207C131.18 210.06 133.65 208.88 136.84 203.47C137.24 202.78 137.59 202.06 138 201.38C140.23 197.71 140.53 197.54 144.43 199.44C151.29 202.77 158.71 203.92 166.11 205.11C167.693 205.302 169.296 205.217 170.85 204.86C175.39 203.96 179.85 202.93 184.42 201.92C188.06 201.11 189.04 200.2 189.42 196.52C189.76 193.02 189.77 189.52 189.82 185.99C189.89 180.53 189.23 179.87 183.82 179.99C179.34 180.06 174.82 180.09 170.4 180.38C165.33 180.7 162.22 178.38 160.46 173.82C159.972 172.47 159.373 171.162 158.67 169.91C155.94 165.28 151.96 163.96 146.23 165.85C146.02 170.11 148.39 175.74 141.16 177.12C137.99 174.12 136.33 170.34 134.81 166.48C133.479 162.863 130.886 159.849 127.51 157.99C123.78 155.89 120.51 152.99 116.87 150.66C114.75 149.252 112.467 148.107 110.07 147.25C108.63 146.75 106.87 147.15 104.69 147.15C108.84 156.52 116.28 161.06 124.25 165.02C122.44 168.93 121.25 172.79 116.84 174.58C116.06 173.51 115.38 172.67 114.84 171.77C112.072 167.265 108.364 163.409 103.971 160.467C99.5769 157.525 94.6002 155.564 89.38 154.72C83.08 153.61 76.99 154.72 72.51 160.34C70.96 162.28 68.68 163.67 66.59 165.11C63.33 167.36 60.21 170.04 59.59 173.91C58.76 179.32 55.59 181.83 50.89 183.39C48.9447 184.108 47.0532 184.963 45.23 185.95C44.03 186.55 42.9 187.31 41.73 188.01C44.21 191.84 44.44 191.93 47.6 191.08C50.22 190.37 52.87 189.78 55.47 189.03C60.2 187.66 65.01 186.45 69.61 184.72C76.9769 182.058 84.6972 180.502 92.52 180.1C94.273 179.98 96.0343 180.111 97.75 180.49C101.99 181.49 102.75 182.7 101.75 186.88C100.94 190.41 100.09 194 99.23 197.64V197.61ZM237.62 136.34C229.78 132.59 228.62 132.88 223.12 138.9C221.39 140.79 221.28 142.31 222.77 144.32C225.77 148.32 228.6 152.32 231.36 156.42C232.476 158.36 233.478 160.364 234.36 162.42C229.94 160.67 226.69 158.89 223.22 158.13C218.52 157.26 213.771 156.676 209 156.38C207 156.19 205.44 156.03 204.73 153.56C204.075 151.942 202.959 150.551 201.52 149.56C196.27 145.43 190.52 142.66 183.52 142.85C179.196 142.973 174.909 142.025 171.04 140.09C167.04 138.09 163.17 139.97 162.16 144.27C161.382 147.689 160.937 151.176 160.83 154.68C160.69 158.48 162.83 160.33 166.61 159.68C168.799 159.245 170.935 158.574 172.98 157.68C179.11 155.31 185.07 155.05 190.91 158.56C192.227 159.332 193.685 159.832 195.198 160.032C196.711 160.231 198.248 160.125 199.72 159.72C207.02 157.93 214.31 158.44 221.52 159.85C226.6 160.85 231.21 163.03 234.52 167.35C236.72 170.26 239.02 173.09 241.21 176C242.72 178 244.42 178.45 246.56 177C247.49 176.38 248.56 175.91 249.45 175.3C252.72 173.2 252.86 172.1 251.11 168.64C249.61 165.69 248.58 162.51 247.11 159.52C245.4 155.96 244.18 151.79 241.49 149.16C237.73 145.5 235.38 142.16 237.78 137.01C237.85 137 237.74 136.85 237.62 136.37V136.34ZM189.78 215.59C187.5 218.74 187.36 218.91 189.31 220.59C192.78 223.59 194.95 227.46 196.89 231.49C199.66 237.23 202.41 242.98 205.07 248.77C209.079 257.822 214.422 266.222 220.92 273.69C221.92 274.81 223.1 275.79 225.14 277.69C225.42 274.69 225.85 272.88 225.71 271.12C225.13 264.05 222.12 257.97 217.64 252.57C211.08 244.7 205.18 236.46 201.3 226.86C199.2 221.73 195.09 218.22 189.78 215.62V215.59ZM266.66 40.8103C265.56 46.8103 265.66 46.9603 269.57 45.9703L266.66 40.8103Z" fill="white"/>
</svg>
