<svg width="139" height="130" viewBox="0 0 139 130" fill="none" xmlns="http://www.w3.org/2000/svg">
<path d="M78.64 108.53C77.9044 108.716 77.1879 108.97 76.5 109.29C73.38 111.23 70.7 110.39 68.28 108.05C63.55 103.48 58.53 103.4 53.04 106.68C41.54 113.567 29.9867 120.367 18.38 127.08C16.3106 128.216 14.0232 128.897 11.67 129.08C8.80996 129.31 7.31999 127.92 7.50999 125.08C8.25999 114.08 4.62996 104.01 1.59996 93.7703C1.23996 92.5503 0.899956 91.3203 0.599956 90.0803C-1.19004 82.1903 1.43997 74.7103 8.29997 70.5303C17.55 64.8903 24.46 57.1203 30.3 48.2403C32.94 44.2403 35.5 40.2403 38.06 36.1503C40.36 32.5103 42.87 29.3303 47.89 29.9003C49.89 30.1203 50.71 28.5903 51.27 27.0603C52.04 24.9703 52.49 22.7603 53.27 20.6903C56.78 11.7803 68.14 7.12031 76.85 10.9703C77.6913 11.2601 78.4179 11.8115 78.9234 12.5438C79.429 13.2761 79.6872 14.1509 79.66 15.0403C79.6747 16.9525 79.4801 18.8605 79.0799 20.7303C78.3699 23.4603 79.5 25.0003 81.79 26.0703L82.67 26.4703C89.04 29.3903 91.67 27.8203 91.87 20.9003C92.01 15.8003 92.02 10.6903 92.11 5.5803C92.11 3.4403 92.37 1.28032 94.74 0.420324C97.11 -0.439676 98.74 0.86031 100.18 2.50031C102.18 4.80031 104.18 7.08031 105.92 9.50031C108.92 13.6703 111.66 17.9603 114.43 22.2503C117.583 27.2611 121.655 31.6311 126.43 35.1303C132.32 39.3803 137.21 44.7003 138.51 52.3203C138.833 53.8821 138.974 55.4761 138.93 57.0703C138.38 65.1903 137.93 73.3203 136.93 81.3903C136.388 84.5165 135.284 87.5185 133.67 90.2503C131.8 93.7503 129.33 96.9403 127.19 100.3C120.76 110.4 111.65 117.17 100.56 121.22C96.9295 122.376 93.1577 123.029 89.35 123.16C85.11 123.46 83.35 122.05 81.77 118.03C81.18 116.55 80.8399 115.03 80.3299 113.47C79.8199 111.91 79.27 110.31 78.64 108.53Z" fill="white"/>
</svg>
