<svg width="211" height="95" viewBox="0 0 211 95" fill="none" xmlns="http://www.w3.org/2000/svg">
<path d="M210.9 12.9203C209.355 13.9821 208.044 15.3503 207.05 16.9398C206.056 18.5293 205.399 20.3062 205.12 22.1603C204.4 25.9803 201.54 27.8503 197.91 28.0603C188.85 28.5903 182.91 33.3403 178.59 40.9903C173.982 49.2803 167.327 56.2519 159.26 61.2403C157.54 62.2628 156.05 63.6288 154.882 65.253C153.713 66.8772 152.892 68.7247 152.47 70.6803C151.16 76.2603 150.06 81.9003 148.66 87.4703C148.246 89.3245 147.43 91.0654 146.27 92.5703C143.41 96.0003 139.84 95.4803 138.04 91.3603C136.77 88.4364 135.766 85.4042 135.04 82.3003C134.04 78.3003 131.73 76.0403 127.76 74.9703C122.88 73.6603 118.21 73.5703 114.01 76.6103C110.332 79.2089 105.874 80.4689 101.38 80.1803C98.6717 80.0097 95.9534 80.09 93.26 80.4203C90.3438 80.806 87.5538 81.8512 85.102 83.4766C82.6502 85.1019 80.601 87.2645 79.11 89.8003C78.5 89.6103 78.11 89.6203 77.91 89.4203C68.12 77.1303 55.01 69.8203 40.58 64.4203C30.2137 60.6416 19.4928 57.9178 8.57997 56.2903C7.56642 56.1726 6.5918 55.8306 5.72693 55.2892C4.86205 54.7478 4.12864 54.0206 3.57997 53.1603C1.04945 49.4161 -0.102806 44.9096 0.319968 40.4103C1.16997 27.2703 5.31997 15.1503 11.75 3.71028C12.1858 2.77797 12.9019 2.00506 13.7983 1.49949C14.6947 0.993921 15.7266 0.780928 16.75 0.890269C50.8 0.950269 84.85 0.890277 118.9 0.960277C125.797 1.05263 132.576 2.76538 138.69 5.96028C144.61 8.96028 149.2 13.2503 151.44 19.6203C153.33 25.0203 157.5 27.0203 162.64 26.7503C166.786 26.5851 170.884 25.8031 174.8 24.4303C181.96 21.7603 188.92 18.5203 195.86 15.3103C201.67 12.6603 203.7 12.1303 210.9 12.9203Z" fill="white"/>
</svg>
