<svg width="43" height="53" viewBox="0 0 43 53" fill="none" xmlns="http://www.w3.org/2000/svg">
<path d="M25.81 49.51C26.49 43.76 22.3 40.59 18.75 36.95C14.3059 32.6146 10.1188 28.0235 6.21001 23.2C3.74001 19.99 2.21001 16.01 0.590011 12.2C-0.689989 9.2 0.260013 6.2 2.03001 3.6C2.83145 2.39336 3.99571 1.47276 5.35466 0.971242C6.71361 0.469725 8.19686 0.413261 9.59001 0.809987C12.47 1.44999 14.35 3.35 14.28 6.1C14.1 13.26 18.05 16.52 24.28 18.62C31.21 20.94 35.65 25.9 37.65 33.09C38.71 36.91 40.3599 40.57 41.7099 44.31C42.5299 46.58 43.46 48.92 41.22 50.93C39.22 52.68 37.22 51.99 34.93 51.35C32.11 50.57 29.13 50.17 25.81 49.51Z" fill="white"/>
</svg>
