<svg width="60" height="64" viewBox="0 0 60 64" fill="none" xmlns="http://www.w3.org/2000/svg">
<path d="M7.76005 63.68C3.89005 63.58 1.49 62.09 0.58 59.4C-0.42 56.32 0.860054 53.93 3.26005 52.4C12.9452 46.2367 22.2305 39.4665 31.0601 32.13C38.1301 30.38 40.0601 24.75 41.0601 18.6C41.6001 15.48 41.7801 12.3 42.0601 9.14C42.1501 8.19 42.0001 7.22997 42.0601 6.26997C42.0601 3.95997 42.2601 1.51999 44.9001 0.789991C47.3001 0.139991 48.5701 2.17999 49.9001 3.78999C52.5701 6.92999 55.22 10.09 57.96 13.17C59.48 14.88 59.69 16.65 58.24 18.31C56.46 20.31 54.4801 22.22 52.5201 24.09C42.1534 34.03 31.7834 43.9667 21.4101 53.9C19.4101 55.78 17.77 57.9 15.88 59.9C13.7464 62.1382 10.8463 63.4882 7.76005 63.68V63.68Z" fill="white"/>
</svg>
