<svg width="424" height="164" viewBox="0 0 424 164" fill="none" xmlns="http://www.w3.org/2000/svg">
<path d="M174.76 115.23C175.558 113.759 176.279 112.246 176.92 110.7C178.52 106.08 181.34 102.59 185.92 100.7C192.33 98.0001 195.92 92.9701 197.77 86.5201C198.535 83.7556 199.46 81.0377 200.54 78.3801C202.54 73.7401 206.29 71.1901 211.19 70.4401C215.65 69.7601 219.37 71.0601 221.94 75.0601C223.394 77.3538 224.98 79.5609 226.69 81.6701C229.91 85.6701 232.76 85.9801 237.08 83.1401C237.75 82.7001 238.34 82.1401 239.01 81.7101C243.01 79.0601 244.4 79.5801 245.7 84.2801C246.7 87.8101 247.14 91.5501 248.57 94.8801C250.339 99.134 252.58 103.176 255.25 106.93C257.5 110.01 258.07 112.8 256.77 116.26C256.058 117.858 255.674 119.582 255.64 121.33C255.73 122.95 256.26 125.19 257.4 125.98C261.3 128.69 261.78 132.36 261.49 136.52C261.39 137.93 261.49 139.36 261.49 141.28C253.49 140.22 246.57 137.11 238.85 135.22C240.12 132.45 241.2 130.08 242.48 127.27L222.63 125L226.16 129.95C225.31 131.11 224.31 132.31 223.51 133.62C221.93 136.21 222.38 138.34 225.24 139.41C228.32 140.56 231.65 141.03 235.16 141.87C234.4 144.21 232.26 145.39 230.16 146.32C224.64 148.8 219.04 151.15 213.38 153.32C210.2 154.52 207.14 154.17 204.6 151.41C203.693 150.58 202.57 150.022 201.36 149.8C194.773 148.232 187.841 149.095 181.84 152.23C175.439 155.476 168.862 158.364 162.14 160.88C158.067 162.257 153.831 163.094 149.54 163.37C144.81 163.79 141.24 161.71 139.54 156.91C137.3 150.56 132.76 146.18 126.9 143.11C119.947 139.441 112.201 137.532 104.34 137.55C72.34 137.55 40.3566 137.55 8.38997 137.55H2.13997C3.47212 133.705 3.32236 129.501 1.71997 125.76C1.00997 123.91 1.83997 120.89 2.99997 119.03C5.88997 114.35 6.74997 109.68 5.15997 104.41C4.61997 102.61 4.82997 100.58 4.37997 98.7301C3.37997 94.7301 2.24997 90.8301 0.969971 86.1501L35.28 40.0001C57.28 42.3501 78.89 38.5301 100.36 40.0001C100.68 39.0001 100.93 38.6501 100.84 38.4301C99.21 34.3101 100.84 31.6401 104.2 29.0701C114.03 21.4501 124.57 20.8901 135.2 26.3101C142.53 30.0301 149.6 31.1801 157.28 28.2101C157.864 27.9397 158.507 27.8194 159.15 27.8601C160.46 28.0801 162.08 28.1601 162.91 28.9801C163.4 29.4501 162.65 31.2401 162.36 32.4201C162.25 32.8501 161.79 33.1901 161.56 33.6001C159.93 36.6001 160.51 38.0401 163.91 38.6001C166.289 38.7881 168.678 38.8082 171.06 38.6601C169.62 35.1301 168.34 31.9701 166.77 28.1401C169.77 28.1401 171.96 28.2701 174.14 28.1401C177.25 27.9001 178.06 26.8001 177.63 23.7801C177.54 23.1601 177.24 22.5701 177.11 21.9401C176.27 17.7801 177.6 15.9401 181.76 15.3701C188.08 14.5501 188.08 14.5501 188.89 7.47013L212.17 11.7001C214.69 5.96013 221.26 2.70013 228.36 3.80013C230.759 4.3064 233.129 4.94064 235.46 5.70013C236.92 2.20013 240.01 1.44013 243.52 1.08013C258.656 -0.436627 273.917 -0.20174 289 1.78013C301.78 3.39013 314.72 4.32013 327.63 5.00013C345.83 6.00013 364.05 6.34013 382.26 7.06013C386.89 7.25013 391.51 7.72013 396.12 8.13013C398.85 8.38013 401.46 8.83013 403.35 11.2601C405.24 13.6901 407.96 13.8601 410.71 14.1001C414.95 14.4701 419.17 14.9401 423.6 15.3901C422.71 18.5801 420.84 19.6501 418.5 19.9701C411.25 20.9701 406.5 25.3601 402.5 31.1101C396 40.6001 387.66 48.2301 378.24 54.6801C375.83 56.3201 372.77 57.1601 369.9 57.9401C357.42 61.2801 344.9 64.4601 332.4 67.7201C330.71 68.1701 329.05 68.7201 327.4 69.2101C325.075 69.8688 322.905 70.9858 321.017 72.4953C319.13 74.0048 317.564 75.8764 316.41 78.0001C315.92 78.8201 315.52 79.6901 315.11 80.5601C311.18 88.8601 303.7 91.3901 295.44 87.1401C288.95 83.8001 285.23 78.6401 285.14 71.1401C285.14 69.0701 284.79 67.0101 284.69 64.9301C284.51 60.9901 285.69 57.7101 289.36 55.6601C294.92 52.5601 296.11 47.6001 295.36 41.7401C294.61 35.5001 292.02 30.8001 285.52 29.0501C282.44 28.2301 279.41 27.1801 276.31 26.4201C272.04 25.3701 269.04 23.2401 268.64 18.4901C268.64 18.0801 268.16 17.7001 267.73 17.0401C266.697 17.1477 265.671 17.3214 264.66 17.5601C259.15 19.2001 253.66 20.8301 248.19 22.6301C246.21 23.2588 244.323 24.15 242.58 25.2801C239.87 27.0801 237.14 28.5301 233.77 28.5601C232.868 28.7587 232.011 29.1214 231.24 29.6301C231.64 30.0701 231.83 30.4801 232.04 30.4801C239.39 30.6501 245.44 34.4201 251.61 37.7001C253.28 38.5901 254.51 40.4801 255.71 42.0901C257.608 44.633 259.377 47.2696 261.01 49.9901C262.148 51.6798 262.965 53.5646 263.42 55.5501C264.27 60.8401 261.42 64.0901 256.06 64.4901C255.13 64.5601 254.19 64.4901 252.89 64.4901C252.29 70.7201 247.12 72.9401 242.66 75.5901C241.31 76.4001 238.98 75.9901 237.23 75.5901C235.715 75.0741 234.3 74.2993 233.05 73.3001C227.948 69.9716 222.078 68.0089 216 67.6001C215.206 67.6716 214.405 67.5763 213.65 67.3201C212.65 66.6901 211.35 65.8201 211.14 64.8401C211.07 64.2418 211.15 63.6356 211.371 63.0755C211.593 62.5154 211.95 62.0189 212.41 61.6301C214.62 60.4701 217.12 59.1501 219.5 59.1701C224.72 59.1701 227.71 56.3401 230.42 52.6601C227.53 47.6601 221.85 45.2401 211.61 45.8001C211.53 47.4301 211.43 49.1201 211.37 50.8001C211.17 56.0201 208.7 59.6401 203.64 61.1001C200.12 62.1001 196.45 62.5601 192.92 63.5101C189.24 64.5101 185.42 65.3601 182.05 67.0501C173.48 71.3201 165.05 75.8701 156.72 80.6101C149.18 84.9101 149.36 90.3601 156.97 94.4301C158.808 95.3939 160.733 96.1808 162.72 96.7801C167.63 98.3301 170.18 101.57 169.95 106.73C169.8 110.27 171.08 112.91 174.76 115.23ZM195 37.4901C192.56 40.8101 192.51 42.4001 194.61 44.6501C196.91 47.1201 199.13 46.9901 204.25 43.9401L195 37.4901Z" fill="white"/>
</svg>
