<svg width="77" height="27" viewBox="0 0 77 27" fill="none" xmlns="http://www.w3.org/2000/svg">
<path d="M0.47998 9.06034C3.28998 3.06034 8.81998 -0.0796556 14.64 1.16034C18.2514 1.83443 21.7428 3.04091 25 4.74035C40.59 13.4103 57.31 18.1604 75 19.9804C75.591 20.0841 76.1728 20.2346 76.74 20.4303C77.08 24.4803 75.59 26.7704 72.17 26.6404C64.06 26.3304 55.96 25.7803 47.86 25.1603C42.5 24.7603 37.71 22.5603 33.19 19.7503C31.57 18.7503 29.91 17.7503 28.39 16.6003C21.39 11.2303 13.67 8.44034 4.72998 9.53034C3.30036 9.5301 1.87511 9.37248 0.47998 9.06034V9.06034Z" fill="white"/>
</svg>
