<svg width="90" height="41" viewBox="0 0 90 41" fill="none" xmlns="http://www.w3.org/2000/svg">
<path d="M79.49 0.770067C84.42 0.690067 89.96 5.31007 89.76 9.52007C89.5843 11.4266 88.7205 13.204 87.33 14.5201C84.5048 16.8394 81.5501 18.9963 78.48 20.9801C76.48 22.4201 73.88 23.3001 72.84 26.6801C74.3 28.1401 75.99 29.7501 77.58 31.4601C78.9736 32.7423 80.155 34.2376 81.08 35.8901C81.2798 36.5318 81.3297 37.2109 81.2257 37.8749C81.1217 38.5389 80.8665 39.1702 80.48 39.7201C79.99 40.3501 78.0501 40.4001 77.0601 39.9901C74.608 38.8514 72.215 37.5898 69.89 36.2101C68.1429 35.0974 66.3144 34.118 64.42 33.2801C63.0851 32.7074 61.6223 32.4982 60.1803 32.6739C58.7383 32.8495 57.3684 33.4037 56.21 34.2801C52.31 37.3601 47.89 38.0301 43.12 37.6501C39.98 37.4001 36.82 37.2701 33.29 37.0701C33.29 34.5601 33.37 32.5101 33.29 30.4701C33.07 25.6801 30.88 23.4701 26.1 23.4701C24.1912 23.5626 22.2905 23.7797 20.41 24.1201C19.0708 24.3911 17.6826 24.2861 16.3994 23.8165C15.1162 23.347 13.9881 22.5314 13.14 21.4601C9.14001 16.4601 5.14002 11.4601 0.77002 5.96007C5.47002 3.80007 9.94998 1.64007 14.98 0.96007C17.16 0.65007 18.63 1.82008 19.52 3.75008C20.3 5.46008 21.02 7.21009 22.03 9.54009C23.5832 8.7416 25.0711 7.82209 26.48 6.79009C27.996 5.3588 29.8689 4.36135 31.9026 3.90218C33.9363 3.44301 36.0561 3.53899 38.04 4.18007C46.75 6.67007 55.71 8.36008 63.4 13.7501C65.5746 15.0562 68.0858 15.6926 70.62 15.5801C78.17 15.4501 81.55 10.9201 80.03 3.58007C79.84 2.61006 79.68 1.72007 79.49 0.770067Z" fill="white"/>
</svg>
